<?xml version="1.0" encoding="UTF-8"?>
<svg version="1.1" xmlns="http://www.w3.org/2000/svg" width="500" height="500">
<path d="M0,0 L500,0 L500,500 L0,500 Z " fill="#FEFEFE" transform="translate(0,0)"/>
<path d="M0,0 L182,0 L182,4 L0,4 Z " fill="#FFC163" transform="translate(50,275)"/>
<path d="M0,0 L9,0 L9,13 L22,13 L22,0 L31,0 L31,33 L22,33 L22,20 L9,20 L9,33 L0,33 Z " fill="#FFBF5E" transform="translate(364,234)"/>
<path d="M0,0 L9,0 L9,13 L22,13 L22,0 L31,0 L31,33 L22,33 L22,20 L9,20 L9,33 L0,33 Z " fill="#090909" transform="translate(154,233)"/>
<path d="M0,0 L9,0 L9,13 L22,13 L22,0 L31,0 L31,33 L22,33 L22,20 L9,20 L9,33 L0,33 Z " fill="#090909" transform="translate(61,233)"/>
<path d="M0,0 L10,0 L20,23 L23,30 L23,33 L14,33 L12,28 L-2,28 L-4,33 L-13,33 L-10,24 Z " fill="#070707" transform="translate(118,233)"/>
<path d="M0,0 L26,0 L26,7 L9,7 L9,13 L25,13 L25,20 L9,20 L9,26 L27,26 L27,33 L0,33 Z " fill="#FFBF5E" transform="translate(280,234)"/>
<path d="M0,0 L8,0 L9,22 L12,25 L18,25 L20,22 L21,0 L30,0 L30,22 L27,29 L21,33 L8,33 L1,27 L0,24 Z " fill="#050505" transform="translate(201,233)"/>
<path d="M0,0 L7,0 L16,4 L17,8 L12,12 L8,9 L1,9 L-3,13 L-3,22 L1,26 L7,26 L13,23 L18,29 L10,34 L-3,34 L-9,30 L-13,23 L-13,11 L-8,4 Z " fill="#FFBF5F" transform="translate(333,233)"/>
<path d="M0,0 L29,0 L29,7 L19,7 L19,33 L10,33 L10,7 L0,7 Z " fill="#FFBE5D" transform="translate(238,234)"/>
<path d="M0,0 L2,0 L5,10 L-3,10 L-2,5 Z " fill="#ECECEC" transform="translate(122,243)"/>
</svg>
